# xmcd
#
# Track frame offsets:
#	150
#	19175
#	39807
#	81563
#	93304
#	117613
#	149075
#	158539
#	182317
#	237591
#	246665
#
# Disc length: 3692 seconds
#
# Revision: 1
# Processed by: cddbd v1.5.2PL0 Copyright (c) Steve Scherf et al.
# Submitted via: audiograbber 1.83.01
#
DISCID=940e6a0b
DTITLE=Grateful Dead - 69-12-05 Fillmore West, San Francisco CA
DYEAR=1900
DGENRE=
TTITLE0=Me and My Uncle
TTITLE1=Casey Jones
TTITLE2=Black Peter
TTITLE3=Mama Tried
TTITLE4=It Hurts Me Too
TTITLE5=Cumberland Blues
TTITLE6=Cryptical Envelopment
TTITLE7=Drums
TTITLE8=The Other One > Eleven Jam > The Other One
TTITLE9=Cryptical Envelopment
TTITLE10=Cosmic Charlie
EXTD=
EXTT0=
EXTT1=
EXTT2=
EXTT3=
EXTT4=
EXTT5=
EXTT6=
EXTT7=
EXTT8=
EXTT9=
EXTT10=
PLAYORDER=
